<svg width="732" height="149" viewBox="0 0 732 149" fill="none" xmlns="http://www.w3.org/2000/svg">
<path d="M652.633 146.238C652.633 142.729 652.633 137.055 652.633 133.513C652.633 129.939 652.633 126.364 652.633 122.789C652.633 111.343 652.567 98.9791 652.633 87.5332C652.666 80.154 652.141 72.9716 655.913 66.314C658.897 61.0338 663.784 56.9343 669.523 54.8681C672.311 53.8514 675.295 53.3595 678.247 53.3595C678.575 53.3595 678.936 53.3595 679.264 53.3923C679.362 53.3923 679.428 53.3923 679.526 53.3923C689.037 53.8514 697.203 59.4596 701.237 67.4947C701.598 68.1178 701.893 68.8393 702.188 69.5936C704.32 75.7265 703.926 82.253 703.926 88.6482C703.926 93.4365 703.926 98.2247 703.926 103.013C703.926 113.377 703.926 124.626 703.926 134.989C703.926 138.007 703.926 143.221 703.926 146.238H732C732 141.286 732 134.137 732 129.184C732 111.442 732 92.8462 732 75.1034C732 72.7421 731.869 70.3479 731.672 67.9866C731.082 60.9354 729.048 54.2778 725.408 48.1777C716.225 32.829 694.875 24.6956 678.444 31.2548C672.278 33.7145 667.588 37.9452 662.734 42.3071C662.341 42.6023 661.947 42.8975 661.554 43.1926C661.488 43.2254 661.357 43.3238 661.291 43.3566C659.159 44.6029 656.929 44.5045 655.289 43.4222C655.257 43.3894 655.224 43.3894 655.191 43.3566C655.126 43.3238 655.06 43.2582 654.994 43.2254C653.682 42.2088 652.764 40.5034 652.633 38.1748C652.633 38.0108 652.633 37.8797 652.633 37.7157V37.1909L652.666 28.8279C652.666 28.7951 652.666 28.7295 652.633 28.6967V15.6438V0H624.625V0.163981V146.238H652.633Z" fill="black"/>
<path d="M455.137 30.3047V17.8749V2.3623H427.588V4.42847V12.0372V30.3047H416.536H406.566H404.762V52.8029V55.7218H427.555C427.555 71.4312 427.555 89.0428 427.555 104.851C427.555 109.508 427.817 114.132 429.031 118.625C432.409 131.416 440.477 139.779 452.907 144.042C458.22 145.879 463.762 146.502 469.338 146.502C474.552 146.502 481.8 146.502 487.507 146.502V120.757H461.663C458.056 120.757 455.104 117.805 455.104 114.197V81.7292L455.137 62.1826C455.137 58.5751 458.088 55.6234 461.696 55.6234H472.191H487.507V51.983V42.0786V30.3047H455.137Z" fill="black"/>
<path d="M364.665 30.3054V36.7335V38.7341V39.5868C364.731 45.5885 359.549 47.917 355.778 45.1949C353.023 43.2272 351.153 41.2594 348.562 38.9308C335.969 27.5833 320.751 26.5339 306.026 32.142C305.927 32.1748 305.829 32.2076 305.731 32.2732C295.793 36.1104 287.988 42.6368 282.248 51.623C276.87 60.0844 274.115 69.4314 273.098 79.303C272.934 80.7461 272.836 82.1891 272.77 83.6321C272.77 83.6649 272.77 83.6977 272.77 83.7305C272.738 84.0913 272.738 84.452 272.705 84.78C272.672 85.4359 272.672 86.0591 272.639 86.715C272.639 86.8134 272.639 86.879 272.639 86.9774C272.574 90.3882 272.738 93.8318 273.098 97.2426C274.115 107.114 276.87 116.494 282.248 124.923C287.955 133.909 295.793 140.402 305.731 144.272C305.829 144.305 305.927 144.338 306.026 144.404C320.751 150.012 335.969 148.962 348.562 137.615C351.153 135.286 353.056 133.318 355.81 131.351C359.582 128.629 364.764 130.957 364.698 136.959L364.665 146.503H392.05V145.748V139.714V103.474V76.5481V36.7335V30.7646V30.3054H364.665V30.3054ZM366.174 90.5521C366.174 90.9457 366.174 91.3393 366.141 91.7328C366.141 91.7984 366.141 91.864 366.141 91.9296C366.141 92.2575 366.108 92.5855 366.076 92.9135C366.076 93.0119 366.043 93.1102 366.043 93.2414C366.01 93.5366 365.977 93.8318 365.944 94.1597C365.944 94.2253 365.944 94.2581 365.912 94.3237C364.6 105.999 357.188 115.871 346.955 120.626C344.463 121.873 341.905 122.66 339.248 123.119C337.215 123.512 335.149 123.709 332.984 123.709C331.377 123.709 329.77 123.578 328.229 123.381C324.785 122.955 321.473 122.037 318.324 120.397C317.668 120.069 317.045 119.675 316.455 119.314C306.55 113.575 299.86 102.884 299.86 90.5849V86.7806V86.0591C299.86 85.6983 299.86 85.3375 299.893 84.9768C299.893 84.944 299.893 84.8784 299.893 84.8456C299.893 84.4848 299.926 84.1569 299.958 83.7961C299.958 83.7633 299.958 83.7633 299.958 83.7305C300.746 72.4158 307.174 62.6753 316.455 57.3295C317.078 56.936 317.668 56.5752 318.324 56.2473C321.473 54.6075 324.785 53.6564 328.229 53.2628C329.77 53.0332 331.377 52.9348 332.984 52.9348C335.116 52.9348 337.215 53.1316 339.248 53.5252C341.905 53.9843 344.496 54.7714 346.955 56.0177C356.138 60.2812 363.058 68.677 365.321 78.7783V78.8111C365.42 79.1718 365.485 79.5654 365.551 79.9262C365.551 79.959 365.551 79.9589 365.551 79.9917C365.617 80.3525 365.682 80.7461 365.748 81.1068C365.748 81.1396 365.748 81.1396 365.748 81.1724C365.813 81.566 365.846 81.9267 365.912 82.3203V82.3531C366.043 83.5665 366.108 84.78 366.108 86.0263V90.5521H366.174Z" fill="black"/>
<path d="M583.978 104.521C581.322 111.146 575.877 116.623 569.318 119.903C567.154 121.084 564.825 122.002 562.267 122.592C560.201 123.117 558.135 123.379 556.036 123.445C551.182 123.707 547.082 123.051 542.524 121.149C540.917 120.493 539.441 119.706 538.063 118.788C528.388 113.016 521.895 102.718 521.895 90.5503V86.7459V86.0244C521.895 85.6636 521.895 85.3029 521.928 84.9421C521.928 84.9093 521.928 84.8437 521.928 84.8109C521.928 84.4502 521.96 84.1222 521.993 83.7615C521.993 83.7287 521.993 83.7287 521.993 83.6959C522.747 72.3812 529.143 62.9686 538.326 57.6229C538.916 57.2293 539.539 56.8685 540.195 56.5406C543.311 54.9008 546.59 53.9497 550.001 53.5561C551.411 53.3593 552.854 53.2282 554.297 53.2282C554.33 53.2282 554.363 53.2282 554.396 53.2282C554.494 53.2282 554.593 53.2282 554.691 53.2282C554.724 53.2282 554.757 53.2282 554.789 53.2282C557.052 53.1954 559.217 53.4249 561.381 53.9169C563.841 54.376 566.202 55.1631 568.498 56.311C575.385 59.5578 581.223 65.1988 583.945 72.086H609.69C608.477 61.7552 603.656 53.7201 597.228 46.5705C588.242 36.6005 576.107 31.1891 562.398 29.0573C560.496 28.7622 558.561 28.5982 556.626 28.5326C544.754 28.1718 533.57 30.074 523.502 35.8462C511.039 42.9957 502.742 53.5561 498.183 67.1666C495.231 76.0215 494.346 85.1389 495.166 94.453C495.986 103.898 498.544 112.786 503.398 120.887C511.99 135.186 524.518 143.779 540.753 146.927C548.197 148.37 555.675 148.37 563.185 147.288C574.959 145.582 585.355 140.893 594.112 132.726C601.262 126.069 607.198 118.132 609.297 108.293C609.526 107.178 609.69 106.03 609.789 104.489H583.978V104.521Z" fill="black"/>
<path d="M257.858 87.4332C257.858 87.138 257.825 86.8428 257.825 86.5477H257.858C257.858 86.4165 257.858 86.3181 257.858 86.1869C257.858 85.8262 257.825 85.4982 257.792 85.1374C257.792 85.1046 257.792 85.0718 257.792 85.039C257.727 83.6288 257.628 82.1858 257.464 80.7755C257.399 79.9884 257.3 79.2341 257.202 78.4798C256.677 72.7077 255.169 66.9027 252.61 61.3602C251.463 58.7037 250.085 56.08 248.478 53.5547C245.854 49.4223 242.476 45.7163 238.672 42.6007C218.798 24.8251 189.838 24.4316 173.473 40.4034C170.751 43.0599 167.931 46.8642 163.339 46.8642C158.748 46.8642 155.927 43.0599 153.205 40.4034C136.84 24.4644 107.881 24.8251 88.0061 42.6007C84.1689 45.7491 80.8237 49.4223 78.2 53.5547C76.593 56.08 75.2484 58.6709 74.0677 61.3602C71.5096 66.9027 69.9682 72.7405 69.4762 78.4798C69.3778 79.2341 69.2795 80.0212 69.2139 80.7755C69.0827 82.1858 68.9515 83.6288 68.8859 85.039C68.8859 85.0718 68.8859 85.1046 68.8859 85.1374C68.8531 85.4982 68.8531 85.8262 68.8203 86.1869C68.8203 86.3181 68.8203 86.4165 68.8203 86.5477H68.8531C68.8531 86.8428 68.8203 87.138 68.8203 87.4332C68.8203 87.5316 68.8203 87.5972 68.8203 87.6955C68.8203 88.1219 68.8203 88.5482 68.8203 88.9746V146.565H70.5913H96.2052C96.2052 140.006 96.2052 131.938 96.2052 125.378C96.2052 124.559 96.2052 123.739 96.2052 122.886C96.2052 117.048 96.2052 111.21 96.2052 105.373C96.2052 101.208 96.2052 96.9769 96.2052 92.6806C96.2052 92.5166 96.2052 92.3526 96.2052 92.1886V91.8607C96.2052 91.8279 96.238 91.7951 96.238 91.7295C96.238 81.9234 98.8945 73.3636 106.208 66.0828C109.816 62.4752 114.178 59.6548 118.966 57.9166C123.754 56.1784 128.969 55.6536 134.019 56.3751C136.053 56.6703 138.053 57.1294 139.988 57.7526C141.202 58.1461 142.415 58.6709 143.169 59.622C143.399 59.8843 143.563 60.2123 143.727 60.5403C144.284 61.9177 143.891 63.5247 142.907 64.607C142.349 65.1973 141.694 65.6565 141.038 66.0828C140.087 66.7059 139.168 67.3619 138.25 67.985C133.199 71.527 128.706 75.7249 125.164 81.0051C121.327 86.7445 118.9 93.4021 118.211 100.289C118.08 101.7 117.982 103.143 117.982 104.586C117.982 110.391 119.163 115.9 121.327 120.918C128.214 136.628 144.514 147.647 163.536 147.647C174.719 147.647 184.985 143.81 192.921 137.447C202.662 129.544 208.827 117.835 208.827 104.553C208.827 88.3843 199.677 74.2819 186.1 66.7387C185.936 66.6404 185.772 66.5748 185.608 66.4764C185.411 66.378 185.214 66.2468 185.017 66.1484C182 67.0339 179.048 68.1162 176.261 69.3952C174.555 70.1824 172.883 71.0351 171.309 71.9533C169.669 72.9044 167.996 73.9867 166.422 75.1018C166.422 75.1018 170.751 76.676 175.605 80.1852C180.852 83.9896 185.116 90.3192 185.345 98.8463C185.378 99.863 185.378 100.88 185.28 101.896C184.329 114.982 174.883 122.624 163.405 122.624C151.86 122.624 142.415 114.523 141.53 101.667C141.431 100.552 141.398 99.4366 141.398 98.3215C141.398 97.8952 141.431 97.5016 141.464 97.0753C141.562 95.8946 141.694 94.7139 141.89 93.5661C142.481 90.1553 143.694 86.9084 145.334 83.8584C146.318 82.0546 147.433 80.3492 148.679 78.7094C149.532 77.5943 150.417 76.5448 151.336 75.4953C151.368 75.4625 151.401 75.397 151.467 75.3642C153.861 72.7733 156.517 70.4119 159.338 68.2802C161.404 66.7387 163.569 65.2957 165.832 64.0167C167.406 63.0984 169.078 62.2457 170.784 61.4585C172.522 60.6714 174.326 59.9499 176.162 59.294C186.329 55.752 198.005 54.309 207.811 57.851C212.599 59.5892 216.961 62.4096 220.569 66.0172C227.849 73.298 230.539 81.8578 230.539 91.6639C230.539 91.6967 230.571 91.7295 230.571 91.7951V92.123C230.571 92.287 230.571 92.451 230.571 92.615C230.571 96.8785 230.571 101.109 230.571 105.307C230.571 111.145 230.571 116.983 230.571 122.82C230.571 123.64 230.571 124.46 230.571 125.313C230.571 131.872 230.571 139.94 230.571 146.499H256.382H257.956V88.909C257.956 88.4827 257.956 88.0563 257.956 87.63C257.858 87.5972 257.858 87.4988 257.858 87.4332Z" fill="black"/>
<path d="M0.0679525 113.67V114.523L34.6352 124.985C35.2911 125.247 35.2911 126.165 34.6352 126.428L0.0351562 136.463V146.532H52.5419V137.742H28.9286C28.0431 137.742 27.8136 136.529 28.6663 136.201L52.5419 129.117V122.23L28.6991 115.146C27.8792 114.851 28.0759 113.604 28.9614 113.604H52.5419V104.815H0.0351562L0.0679525 113.67Z" fill="black"/>
<path d="M43.291 82.9427C43.291 83.7626 42.7007 84.4513 41.8808 84.5825L0 90.7154V100.03L52.5068 91.5025V86.3863V79.4991V74.3829L0 65.8887V75.2028L41.8808 81.3029C42.7007 81.4341 43.291 82.1228 43.291 82.9427Z" fill="black"/>
<path d="M0 46.6679V52.4728V52.6368V61.3278H52.5068V52.4728H36.535V46.4383C36.535 37.4522 29.2543 30.1714 20.2681 30.1714H16.4965C7.37916 30.2042 0 37.5833 0 46.6679ZM19.7433 39.0264C24.0069 39.0264 27.5161 42.5356 27.5161 46.7991V52.44H26.4338H9.01897V46.9631C9.01897 42.6012 12.5938 39.0264 16.9557 39.0264H19.7433V39.0264Z" fill="black"/>
</svg>
